#!OML:ASF X:\für Bonn\!DataBase\2005_08_12_Daniel\c3d\Daniel.ASF
:FULLY-SPECIFIED
:DEGREES
2187
root -21.8549 17.4222 30.6729 -0.477658 128.835 -359.964
lowerback 13.3642 0.0261647 1.94732
upperback 3.69304 0.471871 -1.8362
thorax -3.57477 0.337435 -3.10688
lowerneck 0.0316928 4.44024 -6.02909
upperneck 4.98094 6.36088 -3.57182
head 1.47058 3.08174 -0.0339736
rclavicle 4.14466e-014 -1.98785e-014
rhumerus -27.1187 -26.6525 -77.2983
rradius 12.714
rwrist 42.2426
rhand -21.8564 17.1737
rfingers 7.12502
rthumb 4.54748 -12.7575
lclavicle 4.14466e-014 -1.98785e-014
lhumerus -34.2421 5.36697 86.6826
lradius 45.8498
lwrist -1.94403
lhand -16.5149 -5.98617
lfingers 7.12502
lthumb 9.70343 23.7703
rfemur -23.8181 17.4239 19.752
rtibia 35.5282
rfoot -13.2583 18.463
rtoes -13.8669
lfemur -0.416922 -8.68917 -24.6381
ltibia 31.9125
lfoot -31.0728 2.86826
ltoes -5.3903
2188
root -21.8667 17.4149 30.6693 -0.499162 128.006 -360.156
lowerback 13.3345 -0.0463149 1.66652
upperback 3.7643 0.339782 -1.90566
thorax -3.49406 0.276845 -2.99808
lowerneck 0.179483 4.60195 -6.06569
upperneck 4.8869 6.57217 -3.76004
head 1.4188 3.18987 -0.0899875
rclavicle 1.41137e-014 2.70347e-014
rhumerus -26.9389 -25.1819 -78.0745
rradius 12.9774
rwrist 40.6239
rhand -21.8068 17.2752
rfingers 7.12502
rthumb 4.59532 -12.655
lclavicle 1.41137e-014 2.70347e-014
lhumerus -34.3474 5.47893 86.4521
lradius 46.4618
lwrist -1.80102
lhand -16.6093 -5.96477
lfingers 7.12502
lthumb 9.6123 23.7959
rfemur -24.1974 16.5408 19.8094
rtibia 35.878
rfoot -13.6627 16.9251
rtoes -14.2184
lfemur -0.288289 -8.39292 -24.8865
ltibia 31.5774
lfoot -31.1956 3.3106
ltoes -5.0614
2189
root -21.8752 17.4072 30.665 -0.472232 127.169 -360.294
lowerback 13.2596 -0.112686 1.4847
upperback 3.86073 0.22876 -2.04123
thorax -3.35945 0.22808 -3.01776
lowerneck 0.320201 4.73225 -5.99672
upperneck 4.75713 6.73492 -3.94544
head 1.36099 3.27561 -0.162852
rclavicle 5.96354e-016 9.54166e-015
rhumerus -26.9003 -24.3902 -78.708
rradius 13.2801
rwrist 39.7253
rhand -21.7591 17.3587
rfingers 7.12502
rthumb 4.6414 -12.5704
lclavicle 5.96354e-016 9.54166e-015
lhumerus -34.4115 5.48253 86.1347
lradius 47.0916
lwrist -1.60036
lhand -16.6002 -5.98114
lfingers 7.12502
lthumb 9.6211 23.7792
rfemur -24.5899 15.6376 19.946
rtibia 36.2765
rfoot -14.2024 15.2716
rtoes -14.8908
lfemur -0.180815 -8.07713 -25.0933
ltibia 31.2733
lfoot -31.3589 3.79314
ltoes -4.95311
2190
root -21.88 17.3977 30.6607 -0.56238 126.33 -360.576
lowerback 13.2007 -0.170924 1.1763
upperback 3.91342 0.11022 -2.1707
thorax -3.27991 0.173338 -2.95883
lowerneck 0.436374 4.88297 -6.07071
upperneck 4.72991 6.92865 -3.99572
head 1.33057 3.37309 -0.169194
rclavicle -5.75482e-014 -3.97569e-015
rhumerus -26.9307 -23.2562 -79.392
rradius 13.6617
rwrist 38.5464
rhand -21.5846 17.3386
rfingers 7.12502
rthumb 4.80988 -12.5868
lclavicle -5.75482e-014 -3.97569e-015
lhumerus -34.6117 5.41397 85.8669
lradius 47.8551
lwrist -1.12887
lhand -16.6024 -5.9867
lfingers 7.12502
lthumb 9.61896 23.7737
rfemur -24.9918 14.825 19.9977
rtibia 36.7196
rfoot -14.7309 13.5704
rtoes -15.5175
lfemur -0.0724558 -7.74752 -25.3818
ltibia 30.9903
lfoot -31.501 4.26222
ltoes -4.83812
2191
root -21.8815 17.3876 30.6565 -0.583484 125.462 -360.791
lowerback 13.0921 -0.202388 0.873252
upperback 3.98251 0.0300356 -2.28237
thorax -3.15332 0.13801 -2.88983
lowerneck 0.581534 5.00855 -6.01077
upperneck 4.61705 7.08694 -4.19212
head 1.27869 3.45652 -0.244008
rclavicle 7.88181e-014 -1.82882e-014
rhumerus -26.9945 -22.3685 -79.9946
rradius 14.0282
rwrist 37.4736
rhand -21.3862 17.3308
rfingers 7.12502
rthumb 5.00146 -12.5901
lclavicle 7.88181e-014 -1.82882e-014
lhumerus -34.7925 5.45874 85.6179
lradius 48.6534
lwrist -0.779425
lhand -16.4965 -6.0059
lfingers 7.12502
lthumb 9.72113 23.7498
rfemur -25.4281 13.9902 20.1398
rtibia 37.194
rfoot -15.2464 11.9374
rtoes -16.2132
lfemur -0.00451445 -7.44238 -25.6202
ltibia 30.7474
lfoot -31.7232 4.74741
ltoes -4.83744
2192
root -21.877 17.3764 30.6512 -0.689489 124.577 -361.044
lowerback 13.0121 -0.235619 0.513473
upperback 4.05193 -0.0574552 -2.37778
thorax -3.04166 0.0986381 -2.77105
lowerneck 0.648846 5.16101 -6.12162
upperneck 4.60908 7.28834 -4.24298
head 1.26176 3.55618 -0.243248
rclavicle -4.09496e-014 4.6118e-014
rhumerus -27.074 -21.0644 -80.7064
rradius 14.4481
rwrist 36.1259
rhand -21.2705 17.1819
rfingers 7.12502
rthumb 5.11321 -12.7364
lclavicle -4.09496e-014 4.6118e-014
lhumerus -35.0391 5.44504 85.3808
lradius 49.5186
lwrist -0.178618
lhand -16.437 -6.02563
lfingers 7.12502
lthumb 9.77857 23.7273
rfemur -25.7817 13.2252 20.2842
rtibia 37.6878
rfoot -15.6969 10.5021
rtoes -16.185
lfemur 0.128408 -7.13097 -25.894
ltibia 30.5249
lfoot -31.9359 5.29954
ltoes -4.81265
2193
root -21.8706 17.3663 30.6448 -0.738004 123.711 -361.306
lowerback 12.8432 -0.27744 0.158129
upperback 4.10862 -0.156279 -2.49627
thorax -2.89477 0.0526485 -2.67698
lowerneck 0.783161 5.30823 -6.10431
upperneck 4.49836 7.4716 -4.3742
head 1.20897 3.65177 -0.291324
rclavicle 1.96797e-014 -2.46493e-014
rhumerus -27.2098 -19.9747 -81.386
rradius 14.8084
rwrist 35.0263
rhand -21.1718 17.106
rfingers 7.12502
rthumb 5.20844 -12.81
lclavicle 1.96797e-014 -2.46493e-014
lhumerus -35.3639 5.39199 85.0991
lradius 50.5241
lwrist 0.53024
lhand -16.2259 -6.10206
lfingers 7.12502
lthumb 9.9822 23.6412
rfemur -26.2225 12.4082 20.4289
rtibia 38.2057
rfoot -16.1214 9.22845
rtoes -15.8611
lfemur 0.165205 -6.80768 -26.1428
ltibia 30.3419
lfoot -32.1822 5.80956
ltoes -4.85289
2194
root -21.8622 17.3566 30.638 -0.842036 122.845 -361.547
lowerback 12.7461 -0.309963 -0.193166
upperback 4.18589 -0.237687 -2.57627
thorax -2.76361 0.0154411 -2.54848
lowerneck 0.830776 5.45524 -6.20756
upperneck 4.45095 7.66555 -4.46214
head 1.18494 3.74853 -0.303554
rclavicle -4.67144e-014 2.54444e-014
rhumerus -27.4476 -18.941 -81.9988
rradius 15.2571
rwrist 33.9279
rhand -21.0921 16.9539
rfingers 7.12502
rthumb 5.28544 -12.9602
lclavicle -4.67144e-014 2.54444e-014
lhumerus -35.7019 5.38328 84.899
lradius 51.5731
lwrist 1.24979
lhand -16.139 -6.22915
lfingers 7.12502
lthumb 10.0661 23.5101
rfemur -26.5575 11.5561 20.6268
rtibia 38.7204
rfoot -16.5512 8.12324
rtoes -15.6943
lfemur 0.255325 -6.4421 -26.3718
ltibia 30.191
lfoot -32.4612 6.27925
ltoes -4.89
2195
root -21.8518 17.3447 30.6299 -0.938765 121.95 -361.81
lowerback 12.6153 -0.357508 -0.588369
upperback 4.23272 -0.345669 -2.653
thorax -2.64581 -0.0370308 -2.38818
lowerneck 0.878408 5.63827 -6.25672
upperneck 4.42822 7.90947 -4.56777
head 1.17126 3.86975 -0.329095
rclavicle 9.40251e-014 1.51076e-014
rhumerus -27.7293 -18.0427 -82.5363
rradius 15.6397
rwrist 33.0225
rhand -21.0235 16.9026
rfingers 7.12502
rthumb 5.35165 -13.0098
lclavicle 9.40251e-014 1.51076e-014
lhumerus -36.0611 5.46951 84.6687
lradius 52.6402
lwrist 2.02688
lhand -16.0386 -6.31626
lfingers 7.12502
lthumb 10.1629 23.4183
rfemur -26.9432 10.7193 20.8145
rtibia 39.2504
rfoot -16.9283 7.14174
rtoes -15.4656
lfemur 0.293876 -6.10359 -26.6288
ltibia 30.0916
lfoot -32.7218 6.79962
ltoes -5.06703
2196
root -21.8397 17.3346 30.6195 -0.968863 121.097 -362.012
lowerback 12.477 -0.40197 -0.860461
upperback 4.27187 -0.434509 -2.76757
thorax -2.53139 -0.0799808 -2.34051
lowerneck 0.967643 5.79609 -6.25913
upperneck 4.36107 8.11032 -4.65581
head 1.13799 3.9721 -0.359147
rclavicle 3.08116e-014 -1.35174e-014
rhumerus -28.0879 -17.2998 -83.0503
rradius 16.0879
rwrist 32.1777
rhand -20.9299 16.8921
rfingers 7.12502
rthumb 5.44198 -13.0181
lclavicle 3.08116e-014 -1.35174e-014
lhumerus -36.4573 5.59113 84.3697
lradius 53.7632
lwrist 2.6677
lhand -15.8622 -6.5727
lfingers 7.12502
lthumb 10.3331 23.1534
rfemur -27.3266 9.9479 21.0289
rtibia 39.7906
rfoot -17.3191 6.17774
rtoes -15.0866
lfemur 0.292237 -5.69694 -26.8175
ltibia 30.0147
lfoot -33.009 7.23477
ltoes -5.22091
2197
root -21.8246 17.3215 30.6077 -1.01113 120.265 -362.194
lowerback 12.3307 -0.45927 -1.12116
upperback 4.33699 -0.534832 -2.88642
thorax -2.38545 -0.127945 -2.30254
lowerneck 1.05915 5.98301 -6.11529
upperneck 4.23366 8.34842 -4.841
head 1.09593 4.09568 -0.442463
rclavicle -1.8487e-014 1.03368e-014
rhumerus -28.4262 -16.407 -83.6571
rradius 16.5463
rwrist 31.1245
rhand -20.7955 16.8438
rfingers 7.12502
rthumb 5.57184 -13.0629
lclavicle -1.8487e-014 1.03368e-014
lhumerus -36.725 5.73889 84.0702
lradius 54.7929
lwrist 3.27977
lhand -15.7647 -6.94166
lfingers 7.12502
lthumb 10.4271 22.7798
rfemur -27.672 9.29593 21.2471
rtibia 40.3526
rfoot -17.7166 5.24841
rtoes -14.6653
lfemur 0.31665 -5.37256 -27.0079
ltibia 29.9622
lfoot -33.3209 7.67011
ltoes -5.27526
2198
root -21.8052 17.3094 30.594 -1.09082 119.491 -362.451
lowerback 12.1169 -0.528954 -1.44026
upperback 4.41749 -0.653443 -2.97566
thorax -2.18565 -0.186013 -2.19866
lowerneck 1.0834 6.15776 -5.94103
upperneck 4.13297 8.5848 -5.12982
head 1.08099 4.21648 -0.558829
rclavicle -2.48481e-014 3.97569e-015
rhumerus -28.785 -15.727 -84.0905
rradius 16.9866
rwrist 30.4066
rhand -20.6172 16.9566
rfingers 7.12502
rthumb 5.74397 -12.9455
lclavicle -2.48481e-014 3.97569e-015
lhumerus -36.9778 5.98828 83.8483
lradius 55.897
lwrist 3.92455
lhand -15.6261 -7.31981
lfingers 7.12502
lthumb 10.5609 22.3949
rfemur -28.036 8.68201 21.4227
rtibia 40.9355
rfoot -18.0985 4.33454
rtoes -14.3087
lfemur 0.314482 -5.06563 -27.2348
ltibia 29.9193
lfoot -33.6537 8.07633
ltoes -5.31949
2199
root -21.781 17.296 30.5794 -1.17587 118.772 -362.678
lowerback 11.9198 -0.620906 -1.7074
upperback 4.4795 -0.795911 -3.101
thorax -2.01513 -0.256096 -2.15962
lowerneck 1.20006 6.34654 -5.67658
upperneck 4.00158 8.82757 -5.40005
head 1.04541 4.34397 -0.687505
rclavicle -4.55217e-014 4.92986e-014
rhumerus -29.2074 -14.8017 -84.6435
rradius 17.4569
rwrist 29.4526
rhand -20.4364 17.0234
rfingers 7.12502
rthumb 5.91849 -12.8739
lclavicle -4.55217e-014 4.92986e-014
lhumerus -37.2824 6.26115 83.5096
lradius 56.9727
lwrist 4.48351
lhand -15.3618 -7.82041
lfingers 7.12502
lthumb 10.8157 21.8811
rfemur -28.3498 8.1649 21.597
rtibia 41.5323
rfoot -18.4932 3.43407
rtoes -13.7606
lfemur 0.349728 -4.78899 -27.4343
ltibia 29.8875
lfoot -33.9643 8.43959
ltoes -5.41791
2200
root -21.7538 17.2839 30.5614 -1.19981 118.085 -362.843
lowerback 11.7202 -0.721192 -1.95751
upperback 4.5335 -0.94683 -3.17175
thorax -1.8504 -0.332125 -2.07316
lowerneck 1.21906 6.54335 -5.4507
upperneck 3.94475 9.09674 -5.68127
head 1.05013 4.48008 -0.808672
rclavicle 2.34566e-014 3.97569e-015
rhumerus -29.6908 -13.7339 -85.1034
rradius 17.9692
rwrist 28.3486
rhand -20.1297 17.1219
rfingers 7.12502
rthumb 6.21457 -12.7669
lclavicle 2.34566e-014 3.97569e-015
lhumerus -37.6099 6.56108 83.2794
lradius 58.0983
lwrist 5.03524
lhand -15.2511 -8.21047
lfingers 7.12502
lthumb 10.9225 21.4854
rfemur -28.6736 7.60916 21.8042
rtibia 42.1646
rfoot -18.7993 2.7436
rtoes -13.0522
lfemur 0.400194 -4.53531 -27.6085
ltibia 29.8367
lfoot -34.2685 8.81289
ltoes -5.43206
2201
root -21.7233 17.2712 30.5413 -1.18476 117.437 -362.977
lowerback 11.5096 -0.825083 -2.15363
upperback 4.56429 -1.09757 -3.2627
thorax -1.70443 -0.408415 -2.03932
lowerneck 1.34103 6.71195 -5.275
upperneck 3.78225 9.30645 -5.88727
head 0.999324 4.59204 -0.905632
rclavicle 3.27995e-014 1.51076e-014
rhumerus -30.2571 -12.4911 -85.6359
rradius 18.5063
rwrist 27.1657
rhand -19.8697 17.2039
rfingers 7.12502
rthumb 6.46556 -12.6774
lclavicle 3.27995e-014 1.51076e-014
lhumerus -38.0192 6.75519 83.0082
lradius 59.3181
lwrist 5.67902
lhand -15.0358 -8.52713
lfingers 7.12502
lthumb 11.1302 21.1577
rfemur -28.9983 7.1038 22.0037
rtibia 42.8096
rfoot -19.0497 2.21122
rtoes -12.0719
lfemur 0.417238 -4.21615 -27.7375
ltibia 29.8111
lfoot -34.5768 9.10616
ltoes -5.52011
